<svg version="1.1" id="Layer_1" xmlns="http://www.w3.org/2000/svg" xmlns:xlink="http://www.w3.org/1999/xlink" x="0px" y="0px"
	 width="100%" viewBox="0 0 1332 733" enable-background="new 0 0 1332 733" xml:space="preserve">
<path fill="none" opacity="1.000000" stroke="#000000" stroke-linecap="round" stroke-linejoin="round" stroke-width="4.000000"
	d="
M718.500000,594.000000 
	C720.844482,594.266724 721.748291,592.504028 723.032532,591.028320 
	C735.164856,577.087280 751.041443,570.524597 768.997620,570.719849 
	C793.112427,570.982056 812.472534,580.816589 825.220825,602.369385 
	C827.474121,606.179016 831.076050,609.642700 830.770569,613.983887 
	C830.350708,619.950684 832.650269,625.296021 832.535583,631.200073 
	C840.739746,632.346863 848.344788,630.378784 855.993591,629.898254 
	C871.848083,628.902283 887.655151,627.158325 903.507507,626.114197 
	C907.862183,625.827393 910.440430,624.361206 912.642517,620.583069 
	C914.502441,617.392212 916.326782,614.085876 919.879700,611.812012 
	C923.355835,609.587158 923.328064,604.824646 923.907898,600.986084 
	C924.752441,595.395874 924.793701,589.797241 927.324951,584.417603 
	C928.910828,581.047363 927.609436,576.842041 927.869080,572.991150 
	C929.103394,554.684631 928.381348,536.333557 928.482605,517.999878 
	C928.567261,502.667023 928.549011,487.333099 928.477234,472.000092 
	C928.446045,465.332825 928.208069,458.665253 927.983826,452.000549 
	C927.857605,448.249786 924.286743,444.744629 920.499512,444.507599 
	C919.669434,444.455658 918.833313,444.500000 918.000000,444.500000 
	C798.333313,444.500000 678.666687,444.513458 559.000000,444.476227 
	C548.630371,444.472992 538.681885,447.007141 529.053955,450.164459 
	C513.080811,455.402557 497.872864,462.603119 482.975189,470.452942 
	C468.238617,478.217834 454.676361,487.849731 440.533264,496.554047 
	C436.512756,499.028381 438.303833,503.899811 437.236084,507.568695 
	C436.162842,511.256348 436.837524,515.508240 437.039673,519.497986 
	C437.313690,524.905579 440.163086,526.589233 447.500000,526.000122 
	C451.928650,525.644470 453.248230,523.863037 453.028748,518.998718 
	C452.878662,515.672180 453.026550,512.333069 452.994293,509.000061 
	C452.933258,502.693604 451.725494,501.500000 445.500000,501.500000 
	C443.500000,501.500000 441.500000,501.500000 439.500000,501.500000 
"/>
<path fill="none" opacity="1.000000" stroke="#000000" stroke-linecap="round" stroke-linejoin="round" stroke-width="3.000000"
	d="
M833.500000,134.500000 
	C833.433105,133.366592 833.630737,132.470825 834.447632,131.457764 
	C839.011719,125.797592 841.369080,118.845108 841.693604,111.985504 
	C842.029358,104.887978 844.469727,98.108788 844.005798,90.999626 
	C843.962463,90.335785 843.910339,89.652367 844.014099,89.002243 
	C844.943848,83.174255 845.643860,82.522903 851.498291,83.019928 
	C870.502808,84.633324 889.499512,86.338676 908.501160,87.986969 
	C909.659119,88.087418 910.841248,88.088745 911.998718,87.985558 
	C919.304626,87.334206 924.484741,90.271706 927.516602,96.992500 
	C928.066650,98.211800 928.550049,99.934395 929.545471,100.403572 
	C936.615417,103.735779 935.945801,110.576775 936.904907,116.515358 
	C937.608093,120.869278 936.960510,125.124229 940.199524,129.236664 
	C941.900818,131.396698 940.409180,136.002731 940.514160,139.499573 
	C941.554810,174.162628 940.770325,208.833618 940.971497,243.500168 
	C941.006287,249.498993 940.629333,255.499268 940.512146,261.500244 
	C940.423279,266.052490 937.110901,269.640076 932.499146,269.989014 
	C931.504883,270.064270 930.500000,270.000000 929.500000,270.000000 
	C812.666687,270.000000 695.833191,269.924561 579.000183,270.109222 
	C566.430847,270.129089 554.260986,268.239960 542.545898,264.361420 
	C519.194458,256.630463 497.135925,245.981125 476.498962,232.501602 
	C469.338898,227.824829 462.208099,223.100891 454.972839,218.543137 
	C452.998657,217.299530 451.134308,216.091507 450.000000,214.000000 
"/>
<path fill="none" opacity="1.000000" stroke="#000000" stroke-linecap="round" stroke-linejoin="round" stroke-width="3.000000"
	d="
M931.500000,435.000000 
	C933.407349,435.889313 935.417542,436.021423 937.500000,436.020416 
	C990.500000,435.994507 1043.500000,436.003143 1096.500000,435.995697 
	C1102.643188,435.994843 1103.084229,435.641144 1102.979858,429.500336 
	C1102.526733,402.832886 1102.174316,376.161865 1101.442871,349.501556 
	C1100.889771,329.335419 1100.447510,309.173035 1100.499390,289.000000 
	C1100.503662,287.316681 1100.500000,285.633331 1100.500000,284.254547 
	C1097.617310,282.786560 1095.041504,283.003052 1092.500000,283.002869 
	C1041.500000,282.999023 990.500000,283.000000 939.500000,283.000000 
	C803.666687,283.000000 667.832947,282.869049 532.000793,283.268372 
	C521.993225,283.297760 513.110779,280.526733 504.038391,277.868927 
	C487.403625,272.995636 471.007965,267.308502 454.496399,262.011200 
	C447.017609,259.611816 439.460541,257.451324 432.013214,254.960480 
	C426.623047,253.157654 420.999878,252.775925 415.496582,252.624939 
	C397.339020,252.126740 379.166962,252.101639 360.999908,252.018295 
	C342.833649,251.934967 324.654663,251.594437 306.503906,252.131790 
	C292.661835,252.541595 278.831970,252.224518 265.000061,252.503311 
	C257.666351,252.651138 250.333984,252.887955 242.999710,252.976059 
	C239.531006,253.017700 237.729675,254.461227 236.939163,257.986359 
	C233.239761,274.483276 231.089523,291.221832 229.632965,308.011536 
	C228.582687,320.118042 228.007553,332.309479 228.495712,344.500183 
	C229.229797,362.832855 228.859238,381.248840 228.020538,399.477936 
	C227.097641,419.536865 231.058838,438.840607 232.493515,458.500488 
	C232.768402,462.267639 235.381866,463.726501 238.511963,464.448151 
	C240.447495,464.894379 242.499863,464.976715 244.500015,464.978607 
	C276.666656,465.008911 308.833344,465.000000 341.000000,465.000000 
	C350.166656,465.000000 359.344421,464.724182 368.496338,465.091400 
	C375.235168,465.361786 381.814331,464.068329 388.492065,463.801514 
	C393.033569,463.620056 397.530151,463.935364 401.993958,464.135010 
	C412.532379,464.606293 422.502991,462.077759 432.494446,459.478607 
	C448.848358,455.224365 465.184204,450.898102 481.494324,446.478973 
	C494.022858,443.084412 506.515930,439.554382 518.971619,435.903198 
	C520.039673,435.590149 521.101379,435.362366 521.984741,435.566193 
	C525.815796,436.450195 529.669739,435.968842 533.500000,435.969910 
	C661.833313,436.006226 790.166687,436.009399 918.500000,435.957947 
	C922.666809,435.956268 926.833313,435.333313 931.000000,434.999969 
"/>
<path fill="none" opacity="1.000000" stroke="#000000" stroke-linecap="round" stroke-linejoin="round" stroke-width="3.000000"
	d="
M841.000000,108.500000 
	C836.962891,110.174835 836.245972,114.488068 834.105591,117.573273 
	C817.197266,141.946228 782.094116,150.644608 754.063965,137.365021 
	C747.228577,134.126724 741.539490,128.927628 735.756104,123.773651 
	C727.246643,116.190178 725.051270,106.499687 722.422058,96.520531 
	C721.793396,94.134315 723.797302,92.715225 723.595215,90.491348 
	C723.249817,86.689392 723.500000,82.833336 723.500000,79.000069 
	C722.058777,77.539452 720.213257,78.012779 718.500000,78.012543 
	C617.500000,77.998512 516.500000,77.998383 415.500000,78.004059 
	C409.502777,78.004395 409.459656,78.075134 409.499390,84.000008 
	C409.503845,84.666641 409.771851,85.521538 409.459839,85.972198 
	C403.260712,94.926338 403.142975,106.158501 397.725769,115.629135 
	C386.955200,134.458786 372.166534,147.006363 350.492188,150.450745 
	C334.718201,152.957474 320.526703,148.680405 308.042206,138.945862 
	C302.820099,134.874039 298.088135,130.223648 294.397614,124.566803 
	C293.452667,123.118401 292.556946,120.807724 290.000000,121.000000 
"/>
<path fill="none" opacity="1.000000" stroke="#000000" stroke-linecap="round" stroke-linejoin="round" stroke-width="3.000000"
	d="
M466.000000,192.000000 
	C464.889404,197.471390 465.860779,203.008789 465.455811,208.496735 
	C465.347229,209.968613 466.120697,210.702438 467.003082,211.496567 
	C486.015839,228.607559 505.772064,244.634506 530.005920,253.984711 
	C543.030762,259.010101 556.499023,261.829895 570.495239,262.588074 
	C583.505371,263.292786 596.501953,262.895538 609.500183,262.944458 
	C649.832947,263.096283 690.166687,263.000000 730.500000,263.000000 
	C740.166687,263.000000 749.833313,263.000000 759.500000,263.000000 
	C814.166687,263.000000 868.833313,263.004425 923.500000,262.995392 
	C932.051697,262.993988 930.514893,262.386353 930.507935,255.999985 
	C930.486206,236.166687 930.505859,216.333328 930.495850,196.500000 
	C930.493286,191.510345 930.066650,191.208221 924.998596,191.473419 
	C922.173035,191.621307 919.333313,191.500000 916.500000,191.500000 
	C874.000000,191.500000 831.500000,191.500000 789.000000,191.500000 
	C786.166687,191.500000 783.333313,191.500000 780.253357,191.500000 
	C780.169189,193.326630 780.012634,195.163254 780.010986,197.000015 
	C779.993286,216.666672 780.013184,236.333359 779.978210,255.999954 
	C779.974976,257.833588 779.666687,259.666656 779.500000,261.500000 
"/>
<path fill="none" opacity="1.000000" stroke="#000000" stroke-linecap="round" stroke-linejoin="round" stroke-width="3.000000"
	d="
M767.000000,452.500000 
	C767.000000,474.166656 766.994324,495.833344 767.003967,517.500000 
	C767.006409,522.971130 767.028870,522.995422 772.500000,522.996216 
	C818.833313,523.002869 865.166687,523.003540 911.500000,522.995667 
	C917.643127,522.994629 917.991821,522.643127 917.995544,516.500000 
	C918.007568,496.833344 918.006958,477.166656 917.995544,457.500000 
	C917.992371,451.950439 918.247925,451.461914 911.500244,451.434113 
	C864.666931,451.241333 817.834167,451.633789 770.997986,451.232880 
	C750.184753,451.054688 729.332886,451.341217 708.499756,451.455078 
	C677.000671,451.627228 645.500000,451.500000 614.000000,451.500000 
	C600.000000,451.500000 585.984070,451.932190 572.003052,451.417450 
	C532.923523,449.978607 499.758698,464.104584 470.492706,488.991425 
	C464.543121,494.050690 458.500000,499.000000 452.500000,504.000000 
"/>
<path fill="none" opacity="1.000000" stroke="#000000" stroke-linecap="round" stroke-linejoin="round" stroke-width="3.000000"
	d="
M828.500000,605.500000 
	C829.158386,603.711365 829.713257,602.140381 829.113953,599.968567 
	C827.182617,592.969788 825.077393,585.779541 820.747009,580.196167 
	C816.785767,575.088684 811.395813,570.852722 805.536804,567.436890 
	C790.075745,558.423096 773.709351,556.410583 756.509888,560.541260 
	C746.431213,562.961731 738.160156,568.725830 730.481689,575.479187 
	C725.754089,579.637268 720.885681,583.815796 719.089722,590.025940 
	C716.362000,599.457825 710.919739,607.986084 709.908447,617.990723 
	C709.817139,618.893677 709.536682,619.536316 709.942993,620.523438 
	C711.391296,624.041992 710.843811,627.812134 711.037231,631.498047 
	C711.231812,635.204163 709.962952,636.597046 705.999695,636.582520 
	C668.333496,636.444153 630.661499,636.898865 593.001160,636.410034 
	C530.499512,635.598877 467.999634,636.310791 405.499969,636.005493 
	C397.293427,635.965393 397.293243,636.000000 396.500000,627.500000 
"/>
<path fill="none" opacity="1.000000" stroke="#000000" stroke-linecap="round" stroke-linejoin="round" stroke-width="3.000000"
	d="
M608.500000,452.500000 
	C608.666687,454.333344 608.974976,456.166412 608.978210,458.000031 
	C609.013184,477.666626 608.993225,497.333344 609.011047,517.000000 
	C609.012695,518.836731 609.169312,520.673401 609.265015,522.750000 
	C657.500000,522.750000 705.500000,522.750000 753.734985,522.750000 
	C753.830750,520.673401 753.987366,518.836731 753.989075,517.000000 
	C754.006775,497.333344 753.986816,477.666626 754.021790,458.000031 
	C754.025085,456.166412 754.333374,454.333344 754.500000,452.500000 
"/>
<path fill="none" opacity="1.000000" stroke="#000000" stroke-linecap="round" stroke-linejoin="round" stroke-width="4.000000"
	d="
M766.500000,261.500000 
	C766.500000,239.666672 766.446350,217.833069 766.551208,196.000244 
	C766.569397,192.224792 765.942566,190.091476 761.478271,191.427322 
	C759.948547,191.885056 758.166687,191.500000 756.500000,191.500000 
	C713.166687,191.500000 669.833252,191.526825 626.500061,191.456711 
	C622.360168,191.450027 621.025391,190.411942 621.013977,197.000031 
	C620.976624,218.666626 621.000000,240.333328 621.000000,262.000000 
"/>
<path fill="none" opacity="1.000000" stroke="#000000" stroke-linecap="round" stroke-linejoin="round" stroke-width="3.000000"
	d="
M170.000000,254.500000 
	C162.196213,253.892426 156.752823,258.055634 152.031021,263.526764 
	C150.856659,264.887482 150.993988,266.757416 150.994186,268.500000 
	C151.001160,329.833344 150.969070,391.166687 151.032013,452.499969 
	C151.041916,462.145935 159.760468,468.424988 170.000000,466.500000 
"/>
<path fill="none" opacity="1.000000" stroke="#000000" stroke-linecap="round" stroke-linejoin="round" stroke-width="3.000000"
	d="
M1153.500000,262.000000 
	C1155.833374,262.166656 1158.213989,262.093597 1160.491333,262.543671 
	C1168.196655,264.066650 1170.000000,266.337494 1170.000000,274.000000 
	C1170.000000,333.666656 1170.000000,393.333344 1170.000000,453.000000 
	C1170.000000,461.704803 1165.339111,466.367065 1156.500000,466.497955 
	C1155.500244,466.512756 1154.500000,466.500000 1153.500000,466.500000 
"/>
<path fill="none" opacity="1.000000" stroke="#000000" stroke-linecap="round" stroke-linejoin="round" stroke-width="3.000000"
	d="
M170.500000,255.000000 
	C171.301270,256.603210 170.988419,258.325592 170.988754,260.000000 
	C171.001953,327.000000 170.978897,394.000031 171.094666,460.999847 
	C171.098404,463.167786 170.056992,465.230896 170.943054,467.522034 
	C172.619110,471.855713 176.997437,474.491791 181.500000,473.499969 
	C186.025986,472.503021 187.481110,469.728058 187.570007,464.501190 
	C187.893173,445.501099 186.791931,426.492401 187.959564,407.497528 
	C188.091629,405.349213 187.523911,403.166809 187.521545,400.999969 
	C187.489456,371.666656 187.379303,342.332672 187.542725,313.000244 
	C187.650436,293.667084 186.921356,274.326019 187.987427,254.999313 
	C188.149139,252.067673 185.966507,250.112991 183.924850,249.161209 
	C181.006226,247.800659 177.458542,247.812881 174.552063,249.585388 
	C172.781418,250.665222 171.279892,252.390579 170.500000,254.500000 
"/>
<path fill="none" opacity="1.000000" stroke="#000000" stroke-linecap="round" stroke-linejoin="round" stroke-width="3.000000"
	d="
M417.500000,514.500000 
	C410.044891,514.606995 402.850189,516.661926 395.495300,517.456604 
	C384.680176,518.625061 373.841919,519.607361 362.997955,520.474548 
	C347.172546,521.740173 331.297913,522.485168 315.509369,524.091919 
	C297.505951,525.924011 279.499786,528.057739 262.006195,533.021790 
	C251.178497,536.094360 240.737228,539.993591 231.960373,547.453369 
	C229.180267,549.816284 228.275574,552.425232 228.420059,556.003235 
	C228.695572,562.825439 228.500000,569.666687 228.500000,576.500000 
"/>
<path fill="none" opacity="1.000000" stroke="#000000" stroke-linecap="round" stroke-linejoin="round" stroke-width="3.000000"
	d="
M240.500000,137.500000 
	C242.282639,144.461517 240.598709,151.501465 240.915970,158.503799 
	C241.065659,161.807587 241.872803,164.253342 244.442688,166.563736 
	C254.487961,175.594757 266.893677,179.280823 279.507721,182.469467 
	C298.701843,187.321472 318.341309,189.250580 337.999512,191.005508 
	C362.663147,193.207306 387.420746,194.344162 411.998871,197.508881 
	C418.006561,198.282440 424.000000,199.166672 430.000000,200.000000 
"/>
<path fill="none" opacity="1.000000" stroke="#000000" stroke-linecap="round" stroke-linejoin="round" stroke-width="4.000000"
	d="
M606.000000,262.000000 
	C606.000000,240.500000 606.007019,219.000000 605.995544,197.500000 
	C605.992249,191.367767 605.569580,191.001480 599.499695,191.496521 
	C599.168579,191.523529 598.833313,191.500000 598.500000,191.500000 
	C556.833313,191.500000 515.166687,191.514297 473.500031,191.476456 
	C469.609589,191.472931 466.101929,191.419098 462.328613,188.741547 
	C456.394867,184.530914 449.554565,189.091370 449.513458,196.500076 
	C449.483643,201.876221 449.023499,207.305084 451.000000,212.500000 
"/>
<path fill="none" opacity="1.000000" stroke="#000000" stroke-linecap="round" stroke-linejoin="round" stroke-width="3.000000"
	d="
M593.499939,452.500000 
	C593.333313,454.333344 593.024963,456.166412 593.021729,458.000031 
	C592.986755,477.666626 593.006775,497.333344 592.988953,517.000000 
	C592.987305,518.836731 592.830688,520.673401 592.735657,522.735718 
	C590.673401,522.830750 588.836670,522.988647 587.000000,522.989258 
	C544.666687,523.003174 502.333344,523.001892 460.000000,522.994080 
	C457.952148,522.993713 455.832397,523.338928 454.000000,522.000000 
"/>
<path fill="none" opacity="1.000000" stroke="#000000" stroke-linecap="round" stroke-linejoin="round" stroke-width="3.000000"
	d="
M423.999969,254.500000 
	C420.333313,267.000000 416.423492,279.434753 413.048981,292.013153 
	C405.275818,320.987457 401.341980,350.499329 403.142517,380.491455 
	C404.160309,397.445038 406.404694,414.315491 409.860535,431.028839 
	C412.031403,441.527679 413.731628,452.124176 416.500000,462.500000 
"/>
<path fill="none" opacity="1.000000" stroke="#000000" stroke-linecap="round" stroke-linejoin="round" stroke-width="3.000000"
	d="
M1152.500000,262.500000 
	C1152.500000,328.833344 1152.498901,395.166656 1152.501465,461.500000 
	C1152.501831,469.698242 1151.777466,471.043213 1146.500000,472.500031 
	C1139.798584,474.349915 1135.777100,470.830078 1135.888794,463.998169 
	C1135.970215,459.017700 1136.725342,453.991058 1135.172729,448.946838 
	C1134.558960,446.952606 1136.053833,444.438354 1136.050781,441.999939 
	C1135.983765,390.333374 1136.160889,338.665619 1135.831055,287.001068 
	C1135.780029,279.016144 1136.931885,270.995819 1135.574707,262.987335 
	C1135.043701,259.854156 1139.700439,256.151642 1143.494751,256.549927 
	C1147.379883,256.957764 1150.998169,258.154724 1153.000000,262.000000 
"/>
<path fill="none" opacity="1.000000" stroke="#000000" stroke-linecap="round" stroke-linejoin="round" stroke-width="3.000000"
	d="
M399.000000,254.000000 
	C397.772369,258.502197 395.050110,262.979523 394.462738,267.066498 
	C393.131409,276.330505 390.051849,285.052551 387.770721,293.941162 
	C381.562256,318.132996 378.334991,342.605469 378.581177,367.499207 
	C378.782318,387.838135 381.626007,407.959656 384.974213,428.004303 
	C386.477448,437.003723 389.502472,445.703827 389.729095,454.994415 
	C389.784821,457.278870 392.240875,459.641937 392.000000,462.500000 
"/>
<path fill="none" opacity="1.000000" stroke="#000000" stroke-linecap="round" stroke-linejoin="round" stroke-width="4.000000"
	d="
M725.000000,579.000000 
	C722.616272,577.794861 720.041748,578.002869 717.500000,578.002625 
	C681.166687,577.998779 644.830322,578.297729 608.500671,577.933716 
	C546.166809,577.309265 483.833466,577.619080 421.500000,577.502563 
	C411.833374,577.484436 402.166626,577.510437 392.500031,577.491394 
	C390.512939,577.487488 388.490143,577.241699 387.000000,579.000000 
"/>
<path fill="none" opacity="1.000000" stroke="#000000" stroke-linecap="round" stroke-linejoin="round" stroke-width="4.000000"
	d="
M719.500000,586.000000 
	C718.000000,585.833313 716.500061,585.521118 715.000000,585.520813 
	C608.166687,585.497986 501.333344,585.497437 394.500000,585.533020 
	C393.347473,585.533386 392.037018,584.925842 391.000000,586.000000 
"/>
<path fill="none" opacity="1.000000" stroke="#000000" stroke-linecap="round" stroke-linejoin="round" stroke-width="4.000000"
	d="
M404.000000,128.000000 
	C406.221558,129.731476 408.687469,128.440765 411.000031,128.442245 
	C515.666687,128.508896 620.333313,128.505951 725.000000,128.464050 
	C727.492126,128.463058 730.092102,129.548615 732.500000,128.000000 
"/>
<path fill="none" opacity="1.000000" stroke="#000000" stroke-linecap="round" stroke-linejoin="round" stroke-width="4.000000"
	d="
M738.250000,135.000000 
	C736.266785,135.959061 734.161865,136.021805 732.000000,136.020111 
	C696.166687,135.991867 660.333313,136.000000 624.500000,136.000000 
	C611.166687,136.000000 597.828857,135.774780 584.500793,136.040146 
	C534.835205,137.029083 485.166351,136.232635 435.499969,136.492020 
	C425.000244,136.546860 414.499908,136.519791 404.000092,136.477753 
	C402.499451,136.471756 401.000000,136.166656 399.500000,136.000000 
"/>
<path fill="none" opacity="1.000000" stroke="#000000" stroke-linecap="round" stroke-linejoin="round" stroke-width="3.000000"
	d="
M721.500000,95.500000 
	C719.728210,94.656639 717.838684,95.014984 716.000000,95.013885 
	C683.833313,94.994667 651.666687,95.000000 619.500000,95.000000 
	C560.500000,95.000000 501.500000,95.000000 442.500000,95.000000 
	C432.330597,95.000000 422.161194,95.000000 412.543793,95.000000 
	C409.899261,92.576401 412.100861,89.423561 410.000000,87.500000 
"/>
<path fill="none" opacity="1.000000" stroke="#000000" stroke-linecap="round" stroke-linejoin="round" stroke-width="4.000000"
	d="
M399.500000,619.500000 
	C464.666656,619.500000 529.833313,619.500000 595.000000,619.500000 
	C631.000000,619.500000 667.000000,619.507996 703.000000,619.478638 
	C705.000122,619.477051 707.000000,619.166687 709.000000,619.000000 
"/>
<path fill="none" opacity="1.000000" stroke="#000000" stroke-linecap="round" stroke-linejoin="round" stroke-width="4.000000"
	d="
M1134.500000,262.000000 
	C1128.908813,261.032196 1125.321533,263.558441 1121.842896,267.873383 
	C1118.668579,271.811157 1116.511353,275.302399 1117.887817,280.529541 
	C1118.410645,282.514648 1117.522217,284.833252 1117.521118,287.000000 
	C1117.493896,338.500000 1117.500000,390.000000 1117.500000,441.500000 
	C1117.500000,445.166656 1117.677612,448.843964 1117.458984,452.497559 
	C1117.114380,458.259094 1122.206299,460.811859 1124.553955,464.969513 
	C1126.142944,467.783447 1129.142456,466.134949 1131.504028,466.471863 
	C1132.647339,466.634949 1133.833374,466.500000 1135.000000,466.500000 
"/>
<path fill="none" opacity="1.000000" stroke="#000000" stroke-linecap="round" stroke-linejoin="round" stroke-width="3.000000"
	d="
M393.500000,266.500000 
	C365.333344,274.500000 337.135010,282.390625 309.009399,290.532440 
	C283.631561,297.878815 258.335114,305.505981 232.991577,312.971405 
	C232.224777,313.197266 231.333328,313.000000 230.500000,313.000000 
"/>
<path fill="none" opacity="1.000000" stroke="#000000" stroke-linecap="round" stroke-linejoin="round" stroke-width="3.000000"
	d="
M1072.500000,138.500000 
	C1071.210449,128.822403 1067.720581,120.654053 1059.053467,114.919136 
	C1039.914062,102.254715 1017.321838,117.092491 1015.328674,135.481430 
	C1013.429504,153.003616 1027.908813,168.293640 1044.497192,167.445129 
	C1059.956055,166.654419 1070.345703,155.672775 1072.008667,141.501022 
	C1072.107300,140.659698 1072.333374,139.833344 1072.500000,139.000015 
"/>
<path fill="none" opacity="1.000000" stroke="#000000" stroke-linecap="round" stroke-linejoin="round" stroke-width="3.000000"
	d="
M229.000000,400.500000 
	C240.166672,404.166656 251.380966,407.695496 262.488007,411.534698 
	C276.537659,416.391022 290.480408,421.555756 304.504852,426.486237 
	C323.151947,433.041901 341.739746,439.788971 360.539307,445.878662 
	C370.012024,448.947174 379.158264,453.082184 389.000000,455.000000 
"/>
<path fill="none" opacity="1.000000" stroke="#000000" stroke-linecap="round" stroke-linejoin="round" stroke-width="3.000000"
	d="
M521.500000,284.500000 
	C521.333313,286.500000 521.022278,288.499908 521.021179,290.500000 
	C520.994019,338.666656 521.000000,386.833344 521.000000,435.000000 
"/>
<path fill="none" opacity="1.000000" stroke="#000000" stroke-linecap="round" stroke-linejoin="round" stroke-width="3.000000"
	d="
M932.000000,284.500000 
	C933.187622,297.015533 935.416077,309.415985 936.027405,321.998657 
	C936.376038,329.172668 937.201965,336.325989 937.463318,343.501343 
	C938.364319,368.237732 937.259521,392.909760 934.448730,417.494141 
	C933.796265,423.200531 932.500000,428.833344 931.500000,434.500000 
"/>
<path fill="none" opacity="1.000000" stroke="#000000" stroke-linecap="round" stroke-linejoin="round" stroke-width="4.000000"
	d="
M925.500000,284.500000 
	C925.500000,334.500000 925.500000,384.500000 925.500000,434.500000 
"/>
<path fill="none" opacity="1.000000" stroke="#000000" stroke-linecap="round" stroke-linejoin="round" stroke-width="3.000000"
	d="
M395.500000,627.000000 
	C392.930420,623.228943 392.736450,618.685059 391.553925,614.484802 
	C384.494629,589.411194 365.064972,566.645264 334.981201,563.162476 
	C319.938416,561.420959 306.305023,566.515442 294.532135,576.039734 
	C289.458557,580.144287 285.827820,585.844116 281.231201,590.217468 
	C273.801666,597.286133 273.844757,605.806091 273.016602,614.501587 
	C272.588867,618.992615 272.408325,623.507446 271.961670,627.996155 
	C271.792511,629.695984 271.717590,631.408569 269.004456,631.573486 
	C258.003998,632.241943 247.000931,631.919983 235.999863,631.954651 
	C234.834244,631.958313 233.321075,631.688477 232.555283,630.943237 
	C226.965164,625.503174 221.108551,620.228455 218.490906,612.503052 
	C217.995377,611.040649 216.623672,610.410889 215.551422,609.443054 
	C207.900467,602.536499 205.621948,593.924438 208.009583,584.002319 
	C208.946732,580.107788 211.518448,578.001709 215.499863,578.024597 
	C235.000168,578.137085 254.500244,578.312256 273.999512,578.541504 
	C275.503235,578.559204 277.000000,579.166626 278.500000,579.500000 
"/>
<path fill="none" opacity="1.000000" stroke="#000000" stroke-linecap="round" stroke-linejoin="round" stroke-width="3.000000"
	d="
M600.500000,452.500000 
	C600.666687,454.333344 600.977539,456.166565 600.978821,458.000000 
	C601.006592,498.333344 601.000000,538.666687 601.000000,579.000000 
	C601.000000,590.333313 601.022156,601.666748 600.977600,612.999939 
	C600.970398,614.833862 600.666687,616.666687 600.500000,618.500000 
"/>
<path fill="none" opacity="1.000000" stroke="#000000" stroke-linecap="round" stroke-linejoin="round" stroke-width="3.000000"
	d="
M613.500000,129.000000 
	C612.485168,133.636383 613.056580,138.339233 613.046387,143.000107 
	C612.963806,180.666595 612.993042,218.333328 613.021301,255.999985 
	C613.022644,257.833466 613.333374,259.666656 613.500000,261.500000 
"/>
<path fill="none" opacity="1.000000" stroke="#000000" stroke-linecap="round" stroke-linejoin="round" stroke-width="3.000000"
	d="
M760.500061,452.500000 
	C760.666687,454.333344 760.976990,456.166534 760.978699,458.000031 
	C761.008301,489.666656 761.009033,521.333313 760.978577,553.000000 
	C760.976624,555.000122 760.666626,557.000000 760.500000,559.000000 
"/>
<path fill="none" opacity="1.000000" stroke="#000000" stroke-linecap="round" stroke-linejoin="round" stroke-width="3.000000"
	d="
M397.000000,626.500000 
	C399.044067,623.162903 399.118591,619.644592 398.003174,615.999023 
	C395.481903,607.758362 394.342010,599.188416 391.600006,590.966675 
	C387.714966,579.317627 380.782532,569.903870 370.922821,563.112061 
	C349.531250,548.376587 326.902710,547.773010 303.453766,558.398010 
	C296.359161,561.612610 290.010071,565.779968 284.622070,571.123108 
	C280.287354,575.421692 278.917969,581.615784 277.513245,587.503174 
	C277.080658,589.316162 275.345642,591.166687 277.500000,593.000000 
"/>
<path fill="none" opacity="1.000000" stroke="#000000" stroke-linecap="round" stroke-linejoin="round" stroke-width="4.000000"
	d="
M730.500000,120.000000 
	C729.548157,123.224533 731.718750,125.842316 733.162109,127.885468 
	C739.407227,136.725815 747.729980,143.466354 757.010864,148.981720 
	C762.142578,152.031342 767.928650,154.665619 773.528931,155.192062 
	C786.020325,156.366302 798.557251,156.155960 810.571289,150.655685 
	C819.119812,146.741943 826.344849,141.393021 832.058960,135.500000 
	C868.498413,135.500000 903.999207,135.500000 939.500000,135.500000 
"/>
<path fill="none" opacity="1.000000" stroke="#000000" stroke-linecap="round" stroke-linejoin="round" stroke-width="4.000000"
	d="
M773.500000,156.500000 
	C773.500000,191.500000 773.500000,226.500000 773.500000,261.500000 
"/>
<path fill="none" opacity="1.000000" stroke="#000000" stroke-linecap="round" stroke-linejoin="round" stroke-width="4.000000"
	d="
M926.500000,578.500000 
	C893.333313,578.500000 860.166687,578.494812 827.000000,578.513855 
	C825.161316,578.514893 823.271790,578.156616 821.500000,579.000000 
"/>
<path fill="none" opacity="1.000000" stroke="#000000" stroke-linecap="round" stroke-linejoin="round" stroke-width="3.000000"
	d="
M412.000000,95.000000 
	C408.615173,101.417076 408.129395,108.633331 406.589447,115.520004 
	C401.908630,136.453171 389.385223,151.030151 369.916473,158.790436 
	C352.153717,165.870682 333.956726,164.179382 316.530243,156.431976 
	C309.255371,153.197723 302.707062,148.637833 297.008301,142.991608 
	C294.637909,140.643051 293.674896,137.423264 292.611176,134.460098 
	C290.948212,129.827744 289.421387,125.179527 289.284698,120.005692 
	C289.174988,115.852730 287.216248,111.744576 286.253357,107.556717 
	C285.049561,102.321495 286.327850,97.094452 285.040375,91.989815 
	C284.763702,90.892929 285.058960,89.663170 284.990112,88.500587 
	C284.639526,82.581985 284.538361,82.500000 278.500000,82.500000 
	C269.000000,82.500000 259.497803,82.614838 250.001251,82.434364 
	C246.902725,82.375481 244.436996,83.036690 242.489868,85.491959 
	C240.872665,87.531197 239.262177,89.589806 237.481995,91.483070 
	C232.247726,97.049805 229.122330,104.079575 223.803726,109.783218 
	C218.694595,115.262199 219.055359,123.614822 220.640579,130.969696 
	C221.477112,134.850922 224.999817,136.135468 229.000854,136.033783 
	C239.498322,135.766998 249.999481,135.602646 260.500153,135.518127 
	C270.832825,135.434952 281.166656,135.500000 291.500000,135.500000 
"/>
<path fill="none" opacity="1.000000" stroke="#000000" stroke-linecap="round" stroke-linejoin="round" stroke-width="3.000000"
	d="
M188.500000,254.500000 
	C194.611465,253.237808 200.227905,253.309464 204.045273,259.471954 
	C205.325760,261.539062 206.058517,263.543732 206.036789,266.000336 
	C205.948410,275.999542 205.963211,286.000153 206.006683,295.999969 
	C206.155960,330.333405 206.315399,364.666779 206.522507,398.999878 
	C206.548645,403.334198 205.598251,407.573090 206.340790,412.026550 
	C207.070816,416.404816 206.500000,421.000000 206.500000,425.500000 
	C206.500000,429.833344 206.322510,434.175659 206.541489,438.497894 
	C206.872070,445.022766 205.213364,451.436920 205.885681,458.011688 
	C206.283203,461.899200 200.812729,466.729218 196.498444,466.972260 
	C193.840210,467.122040 191.166672,467.000000 188.500000,467.000000 
"/>
<path fill="none" opacity="1.000000" stroke="#000000" stroke-linecap="round" stroke-linejoin="round" stroke-width="4.000000"
	d="
M925.000000,588.000000 
	C922.596497,586.385681 919.979370,587.573486 917.499756,587.564819 
	C888.666809,587.463501 859.833313,587.486572 831.000061,587.534607 
	C829.343323,587.537354 827.577454,586.941284 826.000000,588.000000 
"/>
<path fill="none" opacity="1.000000" stroke="#000000" stroke-linecap="round" stroke-linejoin="round" stroke-width="3.000000"
	d="
M839.000000,126.500008 
	C840.500000,126.666672 841.999878,126.977287 843.500000,126.978729 
	C873.166687,127.007271 902.833313,127.008072 932.500000,126.978661 
	C934.166809,126.977005 935.833313,126.666672 937.500000,126.500000 
"/>
<path fill="none" opacity="1.000000" stroke="#000000" stroke-linecap="round" stroke-linejoin="round" stroke-width="3.000000"
	d="
M928.500000,100.000000 
	C926.870728,100.520309 925.284424,101.036171 923.499939,101.032722 
	C898.500000,100.984497 873.500000,101.007668 848.500000,100.978691 
	C847.166504,100.977150 845.833313,100.666664 844.500000,100.500000 
"/>
<path fill="none" opacity="1.000000" stroke="#000000" stroke-linecap="round" stroke-linejoin="round" stroke-width="4.000000"
	d="
M915.500000,614.000000 
	C913.728210,613.156616 911.838684,613.515442 910.000000,613.513977 
	C883.833313,613.493469 857.666687,613.500000 831.500000,613.500000 
"/>
<path fill="none" opacity="1.000000" stroke="#000000" stroke-linecap="round" stroke-linejoin="round" stroke-width="3.000000"
	d="
M857.000000,565.000000 
	C860.257996,564.283142 861.187256,562.123840 861.040283,558.998108 
	C860.868225,555.339539 860.957886,551.666077 861.012939,548.000183 
	C861.059692,544.884277 859.799622,543.061768 856.500305,542.987610 
	C855.815186,542.972290 855.079529,542.666321 854.488647,542.597168 
	C843.327087,541.290649 842.119080,542.544067 841.965637,553.999512 
	C841.820496,564.832397 841.782288,565.352478 853.001099,565.040039 
	C854.145264,565.008179 855.462952,564.425842 856.500000,565.500000 
"/>
<path fill="none" opacity="1.000000" stroke="#000000" stroke-linecap="round" stroke-linejoin="round" stroke-width="3.000000"
	d="
M199.500000,323.500000 
	C200.301270,325.103210 199.986923,326.825562 199.988358,328.500000 
	C200.006195,349.166656 200.000000,369.833344 200.000000,390.500000 
"/>
<path fill="none" opacity="1.000000" stroke="#000000" stroke-linecap="round" stroke-linejoin="round" stroke-width="4.000000"
	d="
M193.500000,325.500000 
	C193.500000,346.833344 193.500000,368.166656 193.500000,389.500000 
"/>
<path fill="none" opacity="1.000000" stroke="#000000" stroke-linecap="round" stroke-linejoin="round" stroke-width="3.000000"
	d="
M435.500000,96.500000 
	C435.240082,102.297272 433.492218,107.832222 432.477509,113.495972 
	C430.903992,122.278969 431.063446,131.139786 430.990265,139.999924 
	C430.858093,156.000198 430.700195,172.000473 430.474731,187.999649 
	C430.423004,191.668732 431.139893,195.256165 430.766205,199.026382 
	C430.505127,201.660263 433.519989,203.855209 435.989685,205.515335 
	C438.867218,207.449615 441.630737,209.553635 444.511871,211.482254 
	C446.641632,212.907913 448.503143,214.749512 451.615356,212.672867 
	C452.922272,211.800812 455.510986,212.751709 457.497467,213.018860 
	C460.586212,213.434189 463.249207,212.664124 465.500000,210.500000 
"/>
<path fill="none" opacity="1.000000" stroke="#000000" stroke-linecap="round" stroke-linejoin="round" stroke-width="3.000000"
	d="
M437.000000,500.000000 
	C429.960541,503.708344 423.369049,508.024658 417.776398,513.722961 
	C419.273102,517.500000 417.999481,521.000732 418.019989,524.499878 
	C418.146912,546.166809 418.113037,567.838318 418.605865,589.497620 
	C418.809723,598.457153 421.187408,607.219299 422.978302,616.004395 
	C423.141418,616.804504 423.000000,617.666687 423.000000,618.500000 
"/>
<path fill="none" opacity="1.000000" stroke="#000000" stroke-linecap="round" stroke-linejoin="round" stroke-width="3.000000"
	d="
M714.500000,542.500000 
	C716.338867,546.990784 719.604797,548.981995 724.503784,548.542297 
	C727.149170,548.304871 729.858704,548.731445 732.493713,548.442688 
	C735.965698,548.062134 738.589966,546.390320 738.996277,542.499634 
	C739.386230,538.765930 737.119324,536.944031 733.990540,536.032471 
	C729.564758,534.742981 724.909119,535.173462 720.531067,535.739990 
	C717.798096,536.093628 715.109558,538.549866 714.500000,542.000000 
"/>
<path fill="none" opacity="1.000000" stroke="#000000" stroke-linecap="round" stroke-linejoin="round" stroke-width="4.000000"
	d="
M231.000000,103.000000 
	C233.658432,104.491104 236.570297,104.508881 239.500000,104.506248 
	C254.500000,104.492767 269.500000,104.500000 284.500000,104.500000 
"/>
<path fill="none" opacity="1.000000" stroke="#000000" stroke-linecap="round" stroke-linejoin="round" stroke-width="3.000000"
	d="
M272.000000,610.500000 
	C270.228180,609.656616 268.338806,610.017944 266.499969,610.014465 
	C252.666687,609.988037 238.833313,610.009705 225.000015,609.990234 
	C222.770737,609.987061 220.552628,609.925354 218.500000,611.000000 
"/>
<path fill="none" opacity="1.000000" stroke="#000000" stroke-linecap="round" stroke-linejoin="round" stroke-width="4.000000"
	d="
M282.500000,572.000000 
	C281.416412,570.667725 279.900879,571.021790 278.499939,571.006592 
	C262.166687,570.829712 245.833328,570.666687 229.500000,570.500061 
"/>
<path fill="none" opacity="1.000000" stroke="#000000" stroke-linecap="round" stroke-linejoin="round" stroke-width="4.000000"
	d="
M295.000000,142.500000 
	C293.363129,143.913956 291.382416,143.489792 289.500000,143.491577 
	C273.833344,143.506439 258.166656,143.500000 242.500000,143.500000 
"/>
<path fill="none" opacity="1.000000" stroke="#000000" stroke-linecap="round" stroke-linejoin="round" stroke-width="3.000000"
	d="
M1162.500000,298.500000 
	C1163.869995,296.975677 1166.177002,296.093292 1165.995728,293.500305 
	C1165.716675,289.504517 1166.771606,285.399323 1165.419678,281.528046 
	C1164.809448,279.780701 1163.204590,278.764404 1160.995972,278.952667 
	C1158.667725,279.151062 1157.669434,281.010284 1157.632324,282.503296 
	C1157.529053,286.656067 1157.239014,290.819824 1157.885010,295.017700 
	C1158.315552,297.815826 1160.304077,297.747681 1162.000000,298.500000 
"/>
<path fill="none" opacity="1.000000" stroke="#000000" stroke-linecap="round" stroke-linejoin="round" stroke-width="3.000000"
	d="
M162.000000,451.000000 
	C164.152100,450.528931 165.504578,449.363220 165.501328,447.000000 
	C165.496292,443.333344 165.374664,439.660919 165.541901,436.001923 
	C165.663376,433.344025 163.732986,432.519104 161.971573,432.128021 
	C160.619171,431.827820 158.933716,432.243805 157.953018,433.973358 
	C156.440781,436.640503 156.925323,446.828278 158.390213,449.558899 
	C159.209198,451.085480 160.706192,450.524048 161.500000,451.500000 
"/>
<path fill="none" opacity="1.000000" stroke="#000000" stroke-linecap="round" stroke-linejoin="round" stroke-width="3.000000"
	d="
M613.500000,96.500000 
	C612.680603,107.000000 612.687073,117.500000 613.500000,128.000000 
"/>
<path fill="none" opacity="1.000000" stroke="#000000" stroke-linecap="round" stroke-linejoin="round" stroke-width="3.000000"
	d="
M204.500000,271.500000 
	C199.166672,270.598480 193.833328,270.878387 188.500000,271.500000 
"/>
<path fill="none" opacity="1.000000" stroke="#000000" stroke-linecap="round" stroke-linejoin="round" stroke-width="4.000000"
	d="
M204.500000,307.500000 
	C199.166672,307.500000 193.833328,307.500000 188.500000,307.500000 
"/>
<path fill="none" opacity="1.000000" stroke="#000000" stroke-linecap="round" stroke-linejoin="round" stroke-width="3.000000"
	d="
M1134.500000,280.500000 
	C1129.361938,281.553040 1124.163940,280.747345 1119.000000,281.000000 
"/>
<path fill="none" opacity="1.000000" stroke="#000000" stroke-linecap="round" stroke-linejoin="round" stroke-width="3.000000"
	d="
M189.000000,407.000000 
	C194.166672,407.000000 199.333328,407.000000 204.500000,407.000000 
"/>
<path fill="none" opacity="1.000000" stroke="#000000" stroke-linecap="round" stroke-linejoin="round" stroke-width="3.000000"
	d="
M1119.000000,448.000000 
	C1124.250000,448.000000 1129.500000,448.000000 1134.750000,448.000000 
"/>
<path fill="none" opacity="1.000000" stroke="#000000" stroke-linecap="round" stroke-linejoin="round" stroke-width="3.000000"
	d="
M204.500000,450.500000 
	C199.361923,451.553040 194.163895,450.747345 189.000000,451.000000 
"/>
<path fill="none" opacity="1.000000" stroke="#000000" stroke-linecap="round" stroke-linejoin="round" stroke-width="3.000000"
	d="
M391.000000,166.500000 
	C386.779877,169.829971 385.640320,175.071884 388.500000,178.000000 
	C390.724884,180.278183 396.391937,179.913895 399.023193,177.525558 
	C401.632233,175.157379 400.750732,172.049286 400.299225,169.536072 
	C399.861023,167.096558 397.201385,166.144012 394.497559,166.480286 
	C393.512787,166.602768 392.500000,166.500000 391.500000,166.500000 
"/>
<path fill="none" opacity="1.000000" stroke="#000000" stroke-linecap="round" stroke-linejoin="round" stroke-width="3.000000"
	d="
M784.500000,38.000000 
	C773.976624,38.935810 764.546143,42.300297 756.460571,49.455467 
	C742.319031,61.969753 738.006958,77.738182 742.180359,95.457527 
	C746.367920,113.237114 758.599731,124.701500 776.058044,128.749817 
	C795.151978,133.177399 812.340759,125.821274 823.539001,110.528549 
	C834.091003,96.118423 834.681274,74.249077 824.681030,59.378254 
	C814.956177,44.916920 801.824951,38.445644 785.000000,38.000000 
"/>
<path fill="none" opacity="1.000000" stroke="#000000" stroke-linecap="round" stroke-linejoin="round" stroke-width="3.000000"
	d="
M347.000000,50.500000 
	C336.169220,51.686703 326.312225,54.880814 317.947510,62.441936 
	C297.729889,80.717178 296.703979,112.826942 318.616119,131.362732 
	C342.835693,151.850403 377.084808,143.578049 390.240265,115.378822 
	C400.359711,93.687454 391.942383,70.708427 373.538452,58.442284 
	C365.563385,53.126942 356.814209,51.062111 347.500000,50.500000 
"/>
<path fill="none" opacity="1.000000" stroke="#000000" stroke-linecap="round" stroke-linejoin="round" stroke-width="3.000000"
	d="
M783.000000,57.500000 
	C770.812622,60.039429 762.840759,66.754807 760.457336,79.492012 
	C757.734253,94.044281 766.723083,105.880554 778.529297,109.401787 
	C792.712646,113.632027 805.662842,106.625259 810.972473,93.988434 
	C818.409058,76.289543 804.104309,55.333168 783.500000,57.500000 
"/>
<path fill="none" opacity="1.000000" stroke="#000000" stroke-linecap="round" stroke-linejoin="round" stroke-width="3.000000"
	d="
M344.500000,70.000000 
	C336.457245,72.094139 329.834930,75.968475 325.441681,83.465828 
	C317.533112,96.962151 323.331665,114.590851 337.995392,121.010498 
	C349.649414,126.112511 361.199463,122.538101 368.891754,113.408791 
	C376.740540,104.093697 377.238708,92.145515 370.472595,82.018311 
	C364.433380,72.979095 355.684052,69.358902 345.000000,70.000000 
"/>
<path fill="none" opacity="1.000000" stroke="#000000" stroke-linecap="round" stroke-linejoin="round" stroke-width="3.000000"
	d="
M1036.500000,90.000000 
	C1019.395203,93.166168 1006.330750,102.137047 999.096375,118.043823 
	C985.698486,147.502441 1002.528381,180.075333 1033.024902,186.888779 
	C1057.964233,192.460678 1081.929199,178.446259 1089.973877,154.991028 
	C1100.181030,125.230522 1081.235352,94.621239 1050.486694,90.089882 
	C1046.082397,89.440811 1041.500000,90.000000 1037.000000,90.000000 
"/>
<path fill="none" opacity="1.000000" stroke="#000000" stroke-linecap="round" stroke-linejoin="round" stroke-width="3.000000"
	d="
M573.000000,535.500000 
	C571.497009,536.495544 569.726929,536.927307 568.433533,538.443298 
	C566.955017,540.176331 566.360901,542.370300 567.153320,543.921692 
	C568.352966,546.270508 570.191284,548.584167 573.500366,548.516968 
	C577.165527,548.442505 580.845215,548.685120 584.496765,548.449951 
	C588.452881,548.195129 591.000000,545.466187 591.000000,542.000000 
	C591.000000,538.646912 588.364075,535.815247 584.496399,535.553162 
	C580.846497,535.305786 577.166687,535.500000 573.500000,535.500000 
"/>
<path fill="none" opacity="1.000000" stroke="#000000" stroke-linecap="round" stroke-linejoin="round" stroke-width="3.000000"
	d="
M859.500000,149.000000 
	C855.415649,149.888199 854.093018,152.476501 854.441650,156.505051 
	C854.728027,159.813599 854.506531,163.166687 854.498108,166.500000 
	C854.489624,169.850266 856.149719,171.511414 859.500000,171.501694 
	C862.333313,171.493484 865.167969,171.554367 867.999695,171.487213 
	C872.212769,171.387268 873.783875,169.869659 873.971558,165.498779 
	C874.114502,162.171585 874.121460,158.827835 873.970825,155.501328 
	C873.756226,150.760727 871.842468,149.056488 866.999939,149.004333 
	C864.666931,148.979202 862.333313,149.000000 860.000000,149.000000 
"/>
<path fill="none" opacity="1.000000" stroke="#000000" stroke-linecap="round" stroke-linejoin="round" stroke-width="3.000000"
	d="
M586.000000,165.500000 
	C585.166687,165.833328 584.277405,166.070709 583.510315,166.517700 
	C581.042480,167.955734 579.298950,169.792999 579.460266,173.001999 
	C579.628662,176.350311 582.395508,177.747482 584.548645,178.315506 
	C589.224182,179.548981 594.303101,179.779251 598.947510,178.331650 
	C601.625122,177.497086 604.114441,175.474243 603.596924,171.487427 
	C603.015259,167.007065 599.658691,166.180603 596.478149,165.624878 
	C593.243652,165.059692 589.833313,165.500000 586.500000,165.500000 
"/>
<path fill="none" opacity="1.000000" stroke="#000000" stroke-linecap="round" stroke-linejoin="round" stroke-width="3.000000"
	d="
M734.000000,165.500000 
	C733.666687,165.666672 733.343384,165.858521 732.998474,165.996109 
	C729.599060,167.352234 726.616211,169.458511 727.630188,173.467056 
	C728.619141,177.376465 732.123352,178.915176 736.000488,178.957855 
	C739.331543,178.994522 742.711243,178.945908 745.987793,178.423309 
	C749.424377,177.875168 752.016724,175.538055 751.849731,172.007111 
	C751.699829,168.836166 749.561584,166.649536 746.014526,165.928482 
	C742.157654,165.144440 738.328430,165.778976 734.500000,165.500000 
"/>
<path fill="none" opacity="1.000000" stroke="#000000" stroke-linecap="round" stroke-linejoin="round" stroke-width="3.000000"
	d="
M769.500000,604.000000 
	C757.104675,606.077026 748.149719,617.151489 747.337769,628.488403 
	C746.209167,644.247009 759.842102,658.260010 775.492310,656.910645 
	C791.880005,655.497681 801.913513,642.272888 799.966125,625.503906 
	C798.657227,614.233032 786.901672,604.058838 775.500000,604.001282 
	C773.666748,603.992065 771.833313,604.000000 770.000000,604.000000 
"/>
<path fill="none" opacity="1.000000" stroke="#000000" stroke-linecap="round" stroke-linejoin="round" stroke-width="3.000000"
	d="
M769.000000,584.500000 
	C756.801575,586.244385 746.410522,591.482361 738.531555,601.026062 
	C722.767517,620.121033 724.409912,647.373840 742.613892,663.874390 
	C769.839478,688.552307 809.189209,674.307739 818.020813,642.005676 
	C823.232361,622.944092 814.417847,601.201660 797.577209,591.367798 
	C788.705750,586.187439 779.514832,584.107422 769.500000,584.500000 
"/>
<path fill="none" opacity="1.000000" stroke="#000000" stroke-linecap="round" stroke-linejoin="round" stroke-width="3.000000"
	d="
M333.500000,591.000000 
	C322.158966,593.166138 313.954712,598.786926 310.427490,610.478149 
	C306.259888,624.292053 314.961243,640.129395 328.998505,643.506226 
	C344.828552,647.314514 361.242249,636.940796 362.349365,619.490417 
	C363.407867,602.806396 350.115265,590.408142 334.000000,591.000000 
"/>
<path fill="none" opacity="1.000000" stroke="#000000" stroke-linecap="round" stroke-linejoin="round" stroke-width="3.000000"
	d="
M378.500000,535.000000 
	C375.262726,537.354919 373.375275,541.837524 374.500000,544.500000 
	C375.711304,547.367432 379.473114,548.342285 383.515198,547.580750 
	C387.860443,546.762085 388.112549,543.874023 388.001617,540.499939 
	C387.884705,536.943115 386.057343,535.100830 382.499878,535.004883 
	C381.334045,534.973450 380.166656,535.000000 379.000000,535.000000 
"/>
<path fill="none" opacity="1.000000" stroke="#000000" stroke-linecap="round" stroke-linejoin="round" stroke-width="3.000000"
	d="
M330.500000,572.000000 
	C316.581970,574.135986 305.200958,580.666321 297.567261,592.543213 
	C282.020081,616.732422 290.763458,647.203491 316.587677,659.312988 
	C342.974213,671.686157 372.311096,657.318787 379.852905,629.959473 
	C388.488373,598.632812 364.002075,571.524170 335.999939,571.996338 
	C334.333740,572.024414 332.666656,572.000000 331.000000,572.000000 
"/>
<path fill="none" opacity="1.000000" stroke="#000000" stroke-linecap="round" stroke-linejoin="round" stroke-width="3.000000"
	d="
M161.000000,271.500000 
	C157.673279,272.694244 156.691544,275.151093 156.960754,278.503143 
	C157.160248,280.987122 156.924728,283.502869 157.019867,285.999237 
	C157.128296,288.844269 158.755783,290.847412 161.501694,290.889465 
	C164.344223,290.933014 165.547211,288.798584 165.509201,285.999878 
	C165.468460,283.000427 165.386200,279.994476 165.531830,277.001556 
	C165.678879,273.979431 164.446182,272.160370 161.500000,271.500000 
"/>
<path fill="none" opacity="1.000000" stroke="#000000" stroke-linecap="round" stroke-linejoin="round" stroke-width="3.000000"
	d="
M600.500000,299.000000 
	C598.447388,300.074615 596.229248,300.012238 594.000000,300.009705 
	C578.000000,299.991516 562.000000,299.991821 546.000000,300.011169 
	C544.163269,300.013367 542.326599,300.169281 540.250000,300.264984 
	C540.250000,341.166656 540.250000,381.833344 540.250000,422.500000 
	C561.333313,422.500000 582.167297,422.419922 602.999451,422.576935 
	C606.574158,422.603851 607.586731,421.560333 607.573425,417.999725 
	C607.449341,384.833527 607.500000,351.666656 607.500000,318.500000 
	C607.500000,312.327667 607.500000,306.155304 607.500000,300.631836 
	C604.800476,298.930756 602.898743,298.973663 601.000000,299.000000 
"/>
<path fill="none" opacity="1.000000" stroke="#000000" stroke-linecap="round" stroke-linejoin="round" stroke-width="4.000000"
	d="
M968.500000,299.000000 
	C965.404236,299.256714 964.408569,300.771240 964.419556,304.000275 
	C964.545837,340.999847 964.564697,378.000275 964.409180,414.999603 
	C964.391846,419.120026 966.108521,419.565979 969.500183,419.554779 
	C998.499878,419.459106 1027.500000,419.500000 1056.811523,419.500000 
	C1058.185669,379.844696 1057.134644,340.166412 1057.579346,300.595032 
	C1055.545044,299.792999 1053.512085,300.003265 1051.500000,300.002838 
	C1030.500000,299.998199 1009.498047,299.840332 988.501160,300.094299 
	C981.941650,300.173645 975.519226,298.958282 969.000000,299.000000 
"/>
<path fill="none" opacity="1.000000" stroke="#000000" stroke-linecap="round" stroke-linejoin="round" stroke-width="3.000000"
	d="
M1161.000000,432.500000 
	C1158.260498,433.582520 1157.255981,435.589661 1157.460571,438.502777 
	C1157.646851,441.156342 1157.435181,443.835327 1157.517456,446.499451 
	C1157.606079,449.369019 1158.521973,451.678070 1161.999023,451.481750 
	C1165.093140,451.307037 1166.138672,449.421692 1166.025757,446.498993 
	C1165.909912,443.503479 1166.142944,440.491119 1165.957642,437.502625 
	C1165.790161,434.804840 1165.156494,432.225769 1161.500000,432.500000 
"/>
</svg>